Coordinates
version=1
nRows=16
nColumns=36
inDegrees=yes

Units are S.I. units (second, meters, Newtons, ...)
If the header above contains a line with 'inDegrees', this indicates whether rotational values are in degrees (yes) or radians (no).

endheader
time	pelvis_tilt	pelvis_list	pelvis_rotation	pelvis_tx	pelvis_ty	pelvis_tz	hip_flexion_r	hip_adduction_r	hip_rotation_r	knee_angle_r	knee_angle_r_beta	ankle_angle_r	subtalar_angle_r	mtp_angle_r	hip_flexion_l	hip_adduction_l	hip_rotation_l	knee_angle_l	knee_angle_l_beta	ankle_angle_l	subtalar_angle_l	mtp_angle_l	lumbar_extension	lumbar_bending	lumbar_rotation	arm_flex_r	arm_add_r	arm_rot_r	elbow_flex_r	pro_sup_r	arm_flex_l	arm_add_l	arm_rot_l	elbow_flex_l	pro_sup_l
      5.17500000	     -7.62074544	     -0.70813895	     -1.48261697	      0.29946493	      0.87649965	      0.05244103	     19.24330016	     -7.08535973	    -12.07870664	     29.78689486	      0.51987939	     13.24263535	     -8.24096315	     -7.49999987	     16.99990432	    -13.99719545	    -11.13107780	     27.96272963	      0.48804170	      9.27109884	     -5.27899659	     -7.49999987	     -8.63198016	     -1.04682911	     -2.19741037	    -26.03716181	    -30.97341909	     22.16752038	     36.37982486	     62.44083719	    327.99184760	    -22.43670483	    378.28007859	     58.18785323	     72.06378776
      5.17916670	     -7.47493933	     -0.76348172	     -1.44988361	      0.29931261	      0.86758664	      0.05137659	     20.86162016	     -7.18829436	    -11.65542849	     33.04156366	      0.57668408	     15.66794896	     -9.38850215	     -7.49999987	     18.78335852	    -14.66750402	    -10.59188211	     31.44205510	      0.54876739	     11.51530593	     -5.21206753	     -7.49999987	     -9.05916275	     -0.89688766	     -1.84770989	    -24.55694754	    -30.38043758	     24.93604930	     34.13600693	     61.05621832	    330.31449735	    -22.69100907	    379.29854933	     56.18164587	     71.92455629
      5.18333330	     -7.35035535	     -0.81005675	     -1.40452112	      0.29581219	      0.87272289	      0.05081007	     22.19938179	     -7.25830298	    -11.14065772	     35.62438300	      0.62176278	     17.10528185	    -10.32383381	     -7.49999987	     20.50384046	    -15.18265501	     -9.94814339	     34.53773865	      0.60279726	     12.99768333	     -5.26716227	     -7.49999987	     -9.46952145	     -0.64197497	     -1.54361763	    -22.54618698	    -29.30768399	     27.00627037	     31.14272883	     60.50285222	    333.24146179	    -22.39716307	    380.38721131	     53.06359314	     71.75775648
      5.18750000	     -6.94079119	     -0.88706633	     -1.34977054	      0.29380897	      0.86867340	      0.05321030	     23.27618147	     -7.24973492	    -10.46617574	     38.20980463	      0.66688690	     18.23635851	    -11.29094128	     -7.49999987	     22.05509580	    -15.71969550	     -9.22858976	     37.65052328	      0.65712560	     14.17844932	     -5.03563183	     -7.49999987	    -10.35031201	     -0.41385587	     -1.45316796	    -20.59534250	    -28.12835778	     29.24413293	     28.76511047	     59.89959545	    335.72278080	    -21.78247384	    380.94340643	     50.06885422	     71.48728123
      5.19166670	     -6.37612159	     -0.93153072	     -1.38982251	      0.29247523	      0.86077595	      0.04943750	     24.26407900	     -7.47226462	     -9.78294528	     40.97717176	      0.71518657	     19.16281061	    -12.25012893	     -7.49999987	     23.51061340	    -16.15864453	     -8.56463355	     41.08750543	      0.71711225	     15.40589411	     -5.13997316	     -7.49999987	    -11.43580757	     -0.16924027	     -1.43550344	    -19.00806943	    -27.49174610	     30.42866861	     27.35362216	     59.37282329	    337.76847142	    -20.98268814	    381.22012698	     47.62627887	     71.07914505
      5.19583330	     -5.82946703	     -0.86380207	     -1.48303249	      0.28840663	      0.86001852	      0.04505451	     25.16457751	     -8.00232483	     -9.27752869	     43.36233853	      0.75681558	     19.79935884	    -12.45873576	     -7.49999987	     24.84110095	    -16.27595933	     -7.94610999	     44.07978828	      0.76933744	     16.41225710	     -5.28491066	     -7.49999987	    -12.34777055	      0.01711175	     -1.95710623	    -17.70173682	    -26.59949451	     29.82096582	     26.27570534	     58.60197114	    339.60278572	    -19.59343540	    380.74508967	     44.91654609	     70.68392096
      5.20000000	     -5.03224795	     -0.78055273	     -1.67714059	      0.28526448	      0.85870458	      0.04106090	     25.78390535	     -8.60812693	     -8.66029964	     45.54705498	      0.79494607	     20.08862763	    -12.54586698	     -7.49999987	     25.65276445	    -16.14969280	     -7.30352738	     46.59348834	      0.81320978	     17.23073448	     -5.54149099	     -7.49999987	    -13.70822162	      0.24806240	     -2.37276836	    -17.02833536	    -25.33149468	     26.35646347	     25.84709948	     56.92686968	    341.31233572	    -17.96531497	    380.43756359	     42.51022734	     70.09678315
      5.20416670	     -4.33776855	     -0.77296753	     -1.85681834	      0.27669778	      0.85271793	      0.04308969	     26.86348346	     -9.04449672	     -8.18025330	     48.00589440	      0.83786092	     20.61715689	    -12.16978492	     -7.49999987	     26.78905571	    -16.21549501	     -6.64466039	     49.15877132	      0.85798242	     18.04529169	     -5.57946643	     -7.49999987	    -15.29596363	      0.35905523	     -3.34253045	    -15.57512185	    -24.16271119	     23.59694616	     26.21582615	     56.41488138	    342.73352685	    -16.95505447	    379.76514995	     41.15801646	     69.79674909
      5.20833330	     -3.38369553	     -0.64852398	     -2.02744186	      0.27418492	      0.85465806	      0.04105624	     27.16649712	     -9.50259211	     -7.69427748	     49.66390028	      0.86679858	     20.66237965	    -11.74335661	     -7.49999987	     27.24917474	    -16.05631951	     -6.13395497	     51.15467188	      0.89281745	     18.26147390	     -5.75619558	     -7.49999987	    -17.48902879	      0.65258830	     -2.90231424	    -16.14131612	    -22.02082802	     12.63083099	     28.53906781	     58.76667479	    345.84435888	    -16.24621893	    380.23219627	     39.03484388	     69.67752943
      5.21250000	     -2.54018823	     -0.56380159	     -2.26896377	      0.27422026	      0.85049348	      0.04015463	     27.38899326	     -9.86941623	     -7.30601790	     51.10645975	      0.89197599	     20.54604948	    -11.48864417	     -7.49999987	     27.58039378	    -16.05275314	     -5.78086067	     53.03864281	      0.92569895	     18.40885159	     -5.86601865	     -7.49999987	    -19.12421855	      0.68100817	     -3.37113180	    -14.68177941	    -21.32992217	     12.21209416	     28.89794628	     58.77973859	    347.38952161	    -15.73935983	    379.92186588	     38.69736139	     69.59579765
      5.21666670	     -1.33980591	     -0.41439276	     -2.20092393	      0.27192808	      0.84676933	      0.03808853	     26.82651468	    -10.56044758	     -7.46787484	     52.25510725	      0.91202367	     21.35336497	    -10.46169513	     -7.49999987	     27.37094071	    -15.75434675	     -5.35573860	     54.66544406	      0.95409199	     18.63205614	     -6.18956379	     -7.49999987	    -21.46322534	      0.93672212	     -3.29690044	    -14.40898371	    -19.30263453	      1.44474623	     30.95650815	     66.15297536	    349.66219972	    -14.45656224	    377.77941317	     36.49690855	     69.02003683
      5.22083330	     -0.73037525	     -0.31298809	     -2.30399333	      0.26629785	      0.83729471	      0.03803202	     27.45972751	    -10.98897597	     -7.23349301	     54.04562306	      0.94327407	     21.86103311	    -10.69314742	     -7.49999987	     28.07959078	    -15.73325044	     -5.08264007	     56.77508643	      0.99091219	     19.14402813	     -6.67567312	     -7.49999987	    -23.07313656	      0.78902150	     -3.51729557	    -13.07505102	    -18.81378510	      1.13391275	     31.88579538	     65.99333383	    350.84742303	    -14.21193537	    377.15520712	     36.94047693	     68.77466239
      5.22500000	     -0.19794109	     -0.21724520	     -2.06910663	      0.26243938	      0.83475707	      0.04014543	     27.93075300	    -11.50132919	     -7.49878546	     55.71048768	      0.97233144	     22.88075763	    -10.06211180	     -7.49999987	     28.83362968	    -15.63839770	     -4.55021045	     58.49893973	      1.02099911	     19.39711161	     -7.14246241	     -7.49999987	    -24.74337240	      0.73498459	     -3.61513894	    -12.47403807	    -16.47623642	     -8.12935931	     34.14715820	     70.22213071	    352.34537145	    -13.30001938	    373.26581138	     36.41229614	     69.46040114
      5.22916670	      0.10444189	     -0.24420477	     -1.99031501	      0.26217475	      0.83080073	      0.03929085	     28.47698053	    -11.73778891	     -7.56411186	     57.13642881	      0.99721881	     23.42187752	    -10.22068488	     -7.49999987	     29.50269043	    -15.77664931	     -4.26082123	     59.98178871	      1.04687970	     19.82146946	     -7.28229039	     -7.49999987	    -25.84690876	      0.53656940	     -3.96379199	    -10.99686878	    -15.68032549	     -8.73835022	     35.18977432	     69.74598098	    353.05138069	    -12.93231884	    371.73795496	     37.09676737	     68.99070708
      5.23333330	      0.42999732	     -0.31851782	     -1.69414294	      0.26181122	      0.83005958	      0.04270339	     28.49931220	    -11.79087502	     -7.94879421	     58.02588180	      1.01274269	     24.13432231	     -9.67052846	     -7.49999987	     29.75201844	    -15.98446270	     -3.93970253	     60.69816172	      1.05938277	     19.96369977	     -6.96632494	     -7.49999987	    -26.78704837	      0.49533980	     -4.29882470	     -9.39243542	    -14.00197883	    -13.04394884	     35.52206667	     69.72076852	    353.72553610	    -11.98828439	    368.24672031	     36.67542108	     68.78609209
      5.23750000	      0.73073191	     -0.37773686	     -1.42788956	      0.26336640	      0.82551443	      0.04434812	     28.25746632	    -11.79083749	     -8.25927984	     58.58928915	      1.02257600	     25.04123865	     -9.28743095	     -7.49999987	     29.83596637	    -16.29553281	     -3.84663252	     61.48046302	      1.07303651	     20.50278212	     -6.30539586	     -7.49999987	    -27.51878765	      0.54036555	     -4.38737115	     -8.68720355	    -12.72401467	    -15.23093934	     36.81115097	     70.08836808	    354.29521133	    -11.69528637	    367.07730731	     37.16453682	     68.85013540
